<?xml version="1.0" standalone="no"?>
<!DOCTYPE svg PUBLIC "-//W3C//DTD SVG 20010904//EN"
 "http://www.w3.org/TR/2001/REC-SVG-20010904/DTD/svg10.dtd">
<svg version="1.0" xmlns="http://www.w3.org/2000/svg"
 width="500.000000pt" height="500.000000pt" viewBox="0 0 500.000000 500.000000"
 preserveAspectRatio="xMidYMid meet">

<g transform="translate(0.000000,500.000000) scale(0.100000,-0.100000)"
fill="#000000" stroke="none">
<path d="M2290 4284 c-253 -31 -519 -126 -742 -265 -415 -257 -710 -687 -810
-1181 -20 -98 -23 -143 -23 -338 0 -254 15 -357 81 -558 201 -613 724 -1075
1365 -1204 98 -19 145 -23 329 -23 135 0 243 5 290 13 760 135 1331 686 1482
1434 20 98 23 143 23 338 0 195 -3 240 -23 338 -146 723 -690 1270 -1413 1423
-85 18 -143 22 -314 24 -115 2 -226 1 -245 -1z m490 -59 c552 -88 1031 -440
1279 -940 111 -223 162 -402 183 -648 39 -454 -111 -917 -416 -1276 -146 -173
-340 -322 -551 -426 -159 -78 -270 -116 -440 -151 -117 -24 -151 -27 -335 -27
-183 0 -219 3 -331 26 -557 116 -1003 461 -1245 962 -350 726 -151 1609 475
2113 277 223 561 337 961 386 70 8 318 -3 420 -19z"/>
<path d="M2255 4204 c-854 -133 -1475 -847 -1475 -1697 0 -506 206 -965 584
-1299 420 -371 1004 -513 1550 -377 313 79 575 227 801 453 330 332 505 755
505 1223 0 948 -780 1719 -1732 1712 -79 -1 -183 -8 -233 -15z m340 -256 c25
-79 48 -149 50 -155 3 -8 -5 -13 -20 -13 -18 0 -26 8 -35 35 -11 34 -13 35
-65 35 -52 0 -54 -1 -65 -36 -9 -28 -17 -34 -33 -32 -12 2 -22 5 -22 8 0 3 25
71 55 153 41 111 59 147 72 147 13 0 27 -32 63 -142z m222 110 c6 -7 18 -37
27 -65 10 -29 21 -55 25 -58 5 -2 32 16 60 40 56 48 56 48 85 36 16 -6 8 -17
-57 -72 -73 -61 -77 -67 -94 -131 -15 -60 -20 -68 -41 -68 -20 0 -23 4 -18 23
30 110 29 129 -3 215 -17 46 -31 85 -31 88 0 10 38 3 47 -8z m-737 -178 c52
-66 95 -123 95 -127 0 -20 -44 -12 -63 11 -19 25 -20 26 -66 10 -44 -15 -46
-18 -46 -54 0 -36 -12 -50 -41 -50 -5 0 -9 71 -9 165 0 151 2 165 18 164 9 0
58 -51 112 -119z m1206 -25 c31 -54 32 -111 2 -155 -54 -79 -123 -97 -212 -57
-31 14 -56 31 -56 37 0 6 32 69 71 140 l71 130 50 -27 c32 -18 58 -41 74 -68z
m-1506 -34 c99 -71 92 -198 -14 -269 l-50 -33 -83 128 c-45 70 -83 131 -83
134 0 6 76 51 105 61 31 11 97 0 125 -21z m1730 -103 c0 -5 -43 -61 -96 -125
-87 -104 -98 -114 -112 -100 -10 11 -12 20 -5 29 5 7 49 61 98 121 70 85 91
105 101 96 8 -6 14 -16 14 -21z m-740 -77 c244 -65 404 -157 566 -323 176
-181 278 -378 320 -619 22 -126 15 -358 -15 -477 -26 -102 -76 -226 -128 -312
l-38 -65 -3 245 c-1 134 -7 249 -12 254 -14 14 -139 7 -217 -13 l-72 -19 -12
30 c-19 47 -98 121 -162 152 -46 23 -76 30 -147 34 l-90 5 0 42 c0 36 5 46 39
73 92 74 161 225 161 351 -1 136 -42 235 -139 331 -78 78 -153 116 -255 130
-155 22 -294 -24 -401 -134 -122 -124 -163 -281 -117 -447 24 -86 61 -147 128
-213 47 -47 54 -59 54 -94 l0 -39 -88 -5 c-67 -4 -101 -12 -145 -32 -60 -29
-138 -99 -163 -147 -11 -22 -20 -28 -37 -24 -84 19 -121 24 -185 26 -40 1 -77
-2 -82 -7 -5 -5 -11 -117 -12 -247 l-3 -238 -36 63 c-98 170 -149 367 -149
571 0 258 66 473 209 680 61 87 212 237 297 295 124 83 294 154 434 181 30 6
64 13 75 15 11 3 94 3 185 1 125 -2 183 -8 240 -24z m-1299 -40 c19 -19 29
-40 29 -59 0 -28 4 -30 77 -51 75 -22 76 -23 57 -41 -19 -19 -21 -18 -91 2
-71 21 -73 21 -93 3 l-21 -19 51 -51 c44 -45 49 -53 36 -64 -20 -16 -27 -11
-149 106 l-96 91 59 56 c69 66 97 71 141 27z m2158 -124 c-16 -61 -29 -118
-29 -125 0 -8 35 16 79 52 67 56 81 64 91 51 6 -8 10 -19 8 -24 -4 -12 -220
-191 -231 -191 -19 0 -16 35 12 146 16 65 29 119 28 121 -2 1 -38 -28 -81 -64
-72 -60 -79 -64 -94 -49 -19 19 -28 8 112 125 138 114 144 112 105 -42z m-969
-114 c216 -98 297 -374 168 -575 -40 -63 -89 -105 -168 -142 -59 -28 -74 -31
-166 -31 -96 0 -103 2 -176 38 -49 24 -90 53 -114 80 -40 46 -88 143 -98 196
-6 33 -5 33 24 27 44 -8 175 11 226 33 53 24 147 110 164 152 10 23 10 32 0
44 -20 24 -38 18 -68 -24 -33 -46 -74 -81 -118 -104 -42 -22 -149 -38 -197
-30 l-38 6 6 41 c23 140 153 280 298 317 18 4 68 7 112 5 62 -3 94 -10 145
-33z m-1361 -73 c85 -17 156 -30 158 -30 2 0 -1 -10 -8 -21 -9 -18 -17 -20
-49 -15 -36 6 -38 4 -60 -38 l-23 -43 23 -32 c20 -29 21 -34 8 -48 -14 -13
-27 0 -120 108 -91 106 -117 149 -89 149 3 0 75 -14 160 -30z m1196 -752 c53
0 100 7 138 19 l57 20 0 -42 c0 -66 11 -72 128 -77 129 -6 196 -36 254 -113
l38 -50 -33 -15 c-251 -113 -427 -233 -538 -366 l-43 -51 -40 51 c-61 78 -139
149 -236 215 -83 57 -229 135 -300 159 l-31 11 18 32 c44 78 155 128 284 129
52 0 90 5 97 12 7 7 12 33 12 58 l0 47 58 -20 c37 -12 84 -19 137 -19z m-795
-264 c85 -10 204 -50 325 -110 170 -83 317 -203 398 -324 30 -45 37 -64 37
-105 l0 -51 -87 86 c-98 96 -196 166 -320 229 -137 68 -319 121 -419 121 l-44
0 0 86 0 86 28 -6 c15 -3 52 -8 82 -12z m1700 -68 l0 -83 -62 -6 c-223 -19
-568 -195 -755 -385 l-53 -54 0 46 c0 65 30 117 115 201 163 161 446 312 658
350 39 7 78 14 85 14 9 1 12 -22 12 -83z m0 -246 l0 -100 -47 0 c-195 0 -482
-69 -655 -155 -39 -20 -73 -34 -75 -31 -7 7 129 117 212 172 179 116 402 202
553 213 9 1 12 -25 12 -99z m-1561 48 c115 -37 228 -91 336 -163 83 -55 195
-150 195 -165 0 -5 -43 11 -95 36 -160 74 -371 125 -587 139 l-98 7 0 95 0 96
77 -7 c42 -4 119 -21 172 -38z m-783 -102 c72 -42 135 -76 141 -76 6 0 52 37
102 81 50 45 93 80 94 78 1 -2 18 -35 37 -72 105 -204 306 -400 526 -513 167
-85 334 -123 540 -124 334 -1 618 116 854 350 104 103 170 189 221 291 17 35
33 66 35 68 2 2 44 -33 94 -78 50 -44 95 -81 101 -81 6 0 70 34 142 76 73 42
135 79 140 81 14 8 -35 -113 -99 -242 -277 -562 -849 -915 -1482 -915 -231 0
-409 33 -620 116 -372 145 -687 435 -871 803 -49 97 -107 246 -93 238 4 -2 66
-39 138 -81z m834 -147 c185 -32 387 -109 538 -205 29 -19 58 -34 66 -34 7 0
53 23 102 51 238 137 439 197 725 215 109 7 111 7 101 -13 -24 -44 -182 -189
-272 -248 -110 -73 -225 -125 -360 -163 -87 -24 -111 -26 -290 -26 -181 0
-202 2 -290 26 -136 38 -251 90 -360 163 -90 59 -248 204 -272 248 -10 19 -7
19 94 13 56 -4 155 -16 218 -27z"/>
<path d="M2508 3946 c-9 -24 -14 -47 -11 -50 8 -8 63 -8 63 0 0 18 -23 94 -29
94 -4 0 -14 -20 -23 -44z"/>
<path d="M1990 3858 c0 -32 2 -58 4 -58 12 0 66 23 66 28 0 4 -16 25 -35 47
l-34 40 -1 -57z"/>
<path d="M3130 3794 c-56 -103 -56 -116 1 -128 39 -7 93 15 114 48 35 53 17
134 -36 162 l-27 14 -52 -96z"/>
<path d="M1635 3788 c-11 -6 -21 -12 -23 -13 -2 -2 24 -46 58 -99 l62 -96 28
20 c59 42 60 135 3 180 -29 22 -95 27 -128 8z"/>
<path d="M1365 3551 l-29 -31 24 -25 c29 -31 41 -31 69 -1 15 16 21 33 19 52
-5 42 -44 44 -83 5z"/>
<path d="M1220 3253 c0 -5 15 -24 34 -42 l34 -33 16 30 16 30 -33 7 c-17 4
-40 9 -49 11 -10 3 -18 1 -18 -3z"/>
<path d="M3557 1826 c-6 -16 19 -30 28 -16 7 11 -2 30 -15 30 -4 0 -10 -6 -13
-14z"/>
<path d="M1278 1753 c-54 -35 -98 -70 -98 -78 0 -20 20 -18 50 5 28 22 70 27
70 8 0 -7 -9 -41 -20 -75 -18 -59 -18 -93 0 -93 8 0 27 56 46 134 6 27 9 28
48 23 22 -4 57 -9 76 -13 34 -7 35 -7 18 12 -12 14 -43 24 -94 33 l-77 13 46
30 c43 28 58 51 40 61 -5 2 -52 -25 -105 -60z"/>
<path d="M3614 1795 c-4 -9 -5 -17 -3 -18 51 -36 202 -116 209 -112 20 13 8
25 -72 73 -125 75 -127 76 -134 57z"/>
<path d="M3524 1647 c-25 -15 -104 -101 -104 -114 0 -5 40 -43 89 -85 66 -57
91 -74 100 -65 8 8 2 20 -25 48 l-35 36 23 27 c22 26 24 26 82 15 46 -8 61 -8
67 2 12 20 1 29 -36 29 -53 0 -65 9 -65 45 0 24 -7 39 -26 54 -30 24 -41 25
-70 8z m56 -42 c16 -19 6 -53 -28 -91 l-27 -32 -35 29 -34 29 39 40 c41 42 65
49 85 25z"/>
<path d="M1584 1609 c-10 -17 13 -36 27 -22 12 12 4 33 -11 33 -5 0 -12 -5
-16 -11z"/>
<path d="M1464 1496 c-69 -66 -86 -87 -77 -96 9 -10 30 5 97 66 47 44 86 84
86 91 0 31 -24 16 -106 -61z"/>
<path d="M1635 1470 c-6 -10 31 -49 48 -50 16 0 5 -21 -53 -96 -33 -43 -59
-83 -57 -88 8 -25 27 -10 86 68 l64 84 32 -24 c37 -28 45 -30 45 -10 0 11
-140 126 -154 126 -3 0 -8 -5 -11 -10z"/>
<path d="M3260 1410 c-36 -27 -65 -53 -65 -58 0 -5 29 -51 65 -101 42 -58 70
-89 79 -86 29 11 141 99 141 112 0 21 -13 16 -76 -32 l-59 -45 -22 28 c-13 15
-23 30 -23 34 0 4 23 24 50 45 28 20 50 43 50 50 0 20 -10 16 -69 -27 l-54
-39 -19 24 c-10 13 -18 27 -18 32 0 5 25 27 55 49 51 36 62 54 39 60 -5 1 -38
-20 -74 -46z"/>
<path d="M3075 1287 c-3 -6 10 -49 30 -95 19 -45 32 -82 29 -82 -3 0 -46 29
-96 64 -73 52 -95 63 -109 55 -17 -9 -15 -17 26 -116 25 -58 45 -108 45 -109
0 -2 7 -4 15 -4 22 0 19 12 -20 103 -19 44 -34 82 -32 83 1 1 43 -26 92 -62
49 -35 94 -64 100 -64 35 1 34 18 -12 128 -45 108 -58 126 -68 99z"/>
<path d="M1850 1198 c-74 -70 -91 -91 -80 -98 11 -7 23 -2 42 17 l27 26 48
-21 c45 -19 48 -23 53 -63 3 -23 10 -44 16 -46 12 -4 24 91 24 198 0 97 -14
96 -130 -13z m95 -34 l-6 -34 -32 16 c-18 9 -34 18 -36 20 -2 2 13 19 35 38
36 31 39 32 42 14 2 -11 1 -36 -3 -54z"/>
<path d="M2710 1216 c0 -10 9 -16 21 -16 24 0 21 23 -4 28 -10 2 -17 -3 -17
-12z"/>
<path d="M2646 1205 c4 -8 12 -15 20 -15 8 0 14 7 14 15 0 8 -9 15 -20 15 -13
0 -18 -5 -14 -15z"/>
<path d="M2145 1198 c-20 -64 -46 -221 -37 -230 16 -16 29 -2 36 41 l6 40 64
-6 c56 -5 66 -3 85 16 26 26 27 75 2 100 -18 18 -42 27 -124 45 -18 4 -29 2
-32 -6z m118 -50 c13 -7 17 -18 15 -41 -3 -36 -24 -44 -85 -32 -34 6 -35 7
-28 43 4 20 9 41 12 45 5 9 58 0 86 -15z"/>
<path d="M2664 1170 c-79 -32 -86 -172 -12 -224 13 -9 43 -16 71 -16 42 0 54
5 83 34 29 29 34 41 34 80 0 53 -19 97 -52 120 -24 17 -90 20 -124 6z m105
-37 c45 -36 45 -140 1 -163 -30 -16 -85 -12 -103 8 -29 32 -40 78 -28 115 18
54 87 75 130 40z"/>
</g>
</svg>
